<?xml version="1.0" encoding="UTF-8"?>
<!DOCTYPE svg PUBLIC "-//W3C//DTD SVG 1.1//EN" "http://www.w3.org/Graphics/SVG/1.1/DTD/svg11.dtd">
<!-- Creator: CorelDRAW 2018 (64-Bit) -->
<svg xmlns="http://www.w3.org/2000/svg" xml:space="preserve" width="134.089mm" height="32.6602mm" version="1.1" style="shape-rendering:geometricPrecision; text-rendering:geometricPrecision; image-rendering:optimizeQuality; fill-rule:evenodd; clip-rule:evenodd"
viewBox="0 0 5225.35 1272.74"
 xmlns:xlink="http://www.w3.org/1999/xlink">
 <defs>
  <style type="text/css">
   <![CDATA[
    .fil0 {fill:#2B224C;fill-rule:nonzero}
   ]]>
  </style>
 </defs>
 <g id="Layer_x0020_1">
  <metadata id="CorelCorpID_0Corel-Layer"/>
  <path class="fil0" d="M4359.95 649.03c0,-53.67 -21.75,-102.26 -56.91,-137.42 -35.16,-35.16 -83.75,-56.91 -137.42,-56.91 -53.67,0 -102.26,21.75 -137.42,56.91 -35.16,35.16 -56.91,83.75 -56.91,137.42 0,53.67 21.75,102.26 56.91,137.42 35.16,35.16 83.75,56.91 137.42,56.91l194.33 0.41 0 -194.74zm-1532.66 384.63c-15.6,54.58 -44.92,103.39 -83.97,142.44 -59.71,59.71 -142.21,96.65 -233.32,96.65 -72.98,0 -141.84,-24.26 -197.74,-66.15 -51.68,-38.73 -92.03,-92.65 -114.02,-156.49l151.62 0c12.17,18.15 27.28,33.99 44.56,46.94 32.3,24.21 72.53,38.22 115.58,38.22 53.16,0 101.29,-21.55 136.12,-56.37 34.83,-34.83 56.37,-82.96 56.37,-136.12l0 -24.79c-54.62,39.53 -121.76,62.85 -194.33,62.85 -91.62,0 -174.57,-37.15 -234.62,-97.19 -60.04,-60.05 -97.19,-143 -97.19,-234.62 0,-91.62 37.15,-174.57 97.19,-234.62 60.04,-60.04 143,-97.19 234.62,-97.19 91.61,0 174.57,37.15 234.61,97.19 59.6,59.6 96.63,141.77 97.18,232.57l0.01 0 0 2.05 0 293.75c0,36.55 -2,53.55 -12.68,90.88zm-124.8 -384.63c0,-53.67 -21.75,-102.26 -56.91,-137.42 -35.16,-35.16 -83.75,-56.91 -137.42,-56.91 -53.67,0 -102.26,21.75 -137.42,56.91 -35.16,35.16 -56.91,83.75 -56.91,137.42 0,53.67 21.75,102.26 56.91,137.42 35.16,35.16 83.75,56.91 137.42,56.91 53.67,0 102.26,-21.75 137.42,-56.91 35.16,-35.16 56.91,-83.75 56.91,-137.42zm1062.59 -378.94l0 710.11 -137.48 0 0 -977.84c18.44,13.4 35.42,28.64 50.68,45.45 53.48,58.91 85.8,137.1 85.8,222.28l1 0zm-2708.02 566.8c-87.95,0 -161.61,-62.17 -181.51,-145.9l362.74 0 97.02 0 45.12 0c1.94,-14.89 3.35,-29.97 3.35,-45.42 0,-184.77 -146.3,-334.56 -326.72,-334.56 -180.5,0 -326.75,149.79 -326.75,334.56 0,184.84 146.25,334.63 326.75,334.63 87.64,0 175.29,-0.04 262.93,0l0 -143.41 -262.93 0.11zm-173.83 -261.53c27.33,-70.89 94.82,-121.06 173.83,-121.06 78.94,0 146.45,50.17 173.79,121.06l-347.62 0zm999.4 -120.98l-224.56 0c-17.2,0 -32.78,6.97 -44.04,18.23 -11.26,11.26 -18.23,26.84 -18.23,44.04 0,17.2 6.97,32.78 18.23,44.04 11.26,11.26 26.84,18.23 44.04,18.23l37.41 0c55.15,0 105.09,22.36 141.24,58.51 36.15,36.15 58.51,86.09 58.51,141.24 0,55.15 -22.36,105.09 -58.51,141.24 -36.15,36.15 -86.09,58.51 -141.24,58.51l-311.7 0 0 -137.48 311.7 0c17.2,0 32.78,-6.97 44.04,-18.23 11.26,-11.26 18.23,-26.83 18.23,-44.04 0,-17.2 -6.97,-32.78 -18.23,-44.04 -11.26,-11.26 -26.84,-18.23 -44.04,-18.23l-37.41 0c-55.15,0 -105.09,-22.36 -141.24,-58.51 -36.15,-36.15 -58.51,-86.08 -58.51,-141.24 0,-55.15 22.36,-105.09 58.51,-141.24 36.15,-36.15 86.09,-58.51 141.24,-58.51l224.56 0 0 137.48zm223.16 -137.34l0 663.16 -137.48 0 0 -663.16 137.48 0zm802.92 663.16l0 -337.9c0,-89.76 36.39,-171.03 95.22,-229.86 58.83,-58.83 140.1,-95.22 229.86,-95.22 89.75,0 171.03,36.39 229.86,95.22 58.82,58.83 95.22,140.1 95.22,229.86l0 343.18 -137.48 0 0 -343.18c0,-51.81 -21,-98.72 -54.94,-132.66 -33.94,-33.94 -80.85,-54.94 -132.66,-54.94 -51.81,0 -98.72,21 -132.66,54.94 -33.94,33.94 -54.94,80.85 -54.94,132.66l0 337.9 -137.48 0zm-2771.23 -331.17c0,-53.67 21.75,-102.26 56.91,-137.42 35.16,-35.16 83.75,-56.91 137.42,-56.91 53.67,0 102.26,21.75 137.42,56.91 34.89,34.89 56.57,82.99 56.9,136.16l0 2.52 0 193.07 -194.32 0c-53.67,0 -102.26,-21.75 -137.42,-56.91 -35.16,-35.16 -56.91,-83.75 -56.91,-137.42zm388.65 -648.3l0 379.33c-54.62,-39.53 -121.76,-62.84 -194.32,-62.84 -91.61,0 -174.57,37.15 -234.61,97.19 -60.04,60.05 -97.19,143 -97.19,234.62 0,91.62 37.15,174.57 97.19,234.62 60.04,60.04 143,97.19 234.61,97.19 150.79,0 190.41,-0.64 331.8,-0.64l0 -739.03c-6.41,-73.89 -37.18,-141.19 -84.54,-193.37 -15.88,-17.49 -33.62,-33.29 -52.93,-47.08zm4561.75 648.3c0,-53.67 -21.75,-102.26 -56.91,-137.42 -35.16,-35.16 -83.75,-56.91 -137.42,-56.91 -53.67,0 -102.26,21.75 -137.42,56.91 -34.89,34.89 -56.57,82.99 -56.9,136.16l0 2.52 0 193.48 194.32 -0.41c53.67,0 102.26,-21.75 137.42,-56.91 35.16,-35.16 56.91,-83.75 56.91,-137.42zm-388.65 -417.93l0 148.96c54.62,-39.53 121.76,-62.84 194.32,-62.84 91.61,0 174.57,37.15 234.61,97.19 60.04,60.05 97.19,143 97.19,234.62 0,91.62 -37.15,174.57 -97.19,234.62 -60.04,60.04 -143,97.19 -234.61,97.19 -150.79,0 -190.41,-0.64 -331.8,-0.64l0 -329.95 -0.01 -1.22 0.01 -1.22 0 -647.8c19.71,13.96 37.8,30 53.96,47.8 45.21,49.8 75.29,113.37 83.52,183.29zm-298.99 183.31c60.04,60.05 97.19,143 97.19,234.62l-0.33 331.17 -331.48 0.64c-91.62,0 -174.57,-37.15 -234.62,-97.19 -60.04,-60.05 -97.19,-143 -97.19,-234.62 0,-91.62 37.15,-174.57 97.19,-234.62 60.04,-60.04 143,-97.19 234.62,-97.19 91.61,0 174.57,37.15 234.61,97.19z"/>
  <path class="fil0" d="M2915.59 1118.34l85.95 0 0 18.27 -32.94 0 0 99.32 -19.9 0 0 -99.32 -33.11 0 0 -18.27zm110.59 0l19.9 0 0 43.71 53.5 0 0 -43.71 19.9 0 0 117.59 -19.9 0 0 -55.78 -53.5 0 0 55.78 -19.9 0 0 -117.59zm132.13 0l19.9 0 0 117.59 -19.9 0 0 -117.59zm57.59 0l21.36 0 45.37 71.41 1.44 2.31 0.57 1.2 1.98 3.15 0.62 0.98 3.83 6.41c-0.87,-7.5 -1.31,-14.57 -1.31,-21.2l0 -64.26 19.9 0 0 117.59 -19.92 0.03 -40.07 -63.31 -3.1 -5.22 -3.78 -6.52 -3.59 -6.36 -2.94 -4.73 -1.3 -2.12 0.32 7.17 0 6.36 0 6.52 0 6.69 0 61.49 -19.41 0 0 -117.59zm131.63 0l19.9 0 0 49.07 45.94 -49.12 24.79 0.05 -50.5 52.52 50.72 65.07 -25.01 0.03 -45.94 -60.81 0 60.78 -19.9 0 0 -117.59zm115.33 0l19.9 0 0 117.59 -19.9 0 0 -117.59zm57.59 0l21.36 0 45.37 71.41 1.44 2.31 0.57 1.2 1.98 3.15 0.62 0.98 3.83 6.41c-0.87,-7.5 -1.31,-14.57 -1.31,-21.2l0 -64.26 19.9 0 0 117.59 -19.92 0.03 -40.07 -63.31 -3.1 -5.22 -3.78 -6.52 -3.59 -6.36 -2.94 -4.73 -1.3 -2.12 0.32 7.17 0 6.36 0 6.52 0 6.69 0 61.49 -19.41 0 0 -117.59zm221.83 26.26c-3.15,-1.74 -5.55,-3.05 -7.18,-3.92 -1.63,-0.87 -4.32,-2.17 -8.07,-3.91 -3.75,-1.74 -9.7,-2.61 -17.86,-2.61 -12.83,0 -23.27,3.97 -31.32,11.91 -8.05,7.94 -12.07,18.49 -12.07,31.64 0,12.61 3.86,22.94 11.58,30.99 7.72,8.05 17.61,12.07 29.68,12.07 4.68,0 9.79,-0.87 15.33,-2.61l0 -40.45 19.9 0 0 53.98c-12.4,4.57 -24.19,6.85 -35.39,6.85 -18.38,0 -33.27,-5.6 -44.69,-16.8 -11.42,-11.2 -17.13,-25.82 -17.13,-43.87 0,-18.38 5.82,-33.27 17.45,-44.69 11.63,-11.42 26.91,-17.13 45.83,-17.13 5.98,0 11.42,0.55 16.31,1.63 4.89,1.09 10.76,3.1 17.61,6.03l0 20.88zm106.52 -26.26l26.61 44.61 27.34 -44.64 22.86 0.03 -40.29 64.42 0 53.17 -19.9 0 0 -52.35 -40.29 -65.24 23.65 0zm155.45 -2.44c17.29,0 31.61,5.73 42.98,17.2 11.36,11.47 17.05,25.96 17.05,43.47 0,17.72 -5.65,32.4 -16.96,44.04 -11.31,11.64 -25.55,17.45 -42.73,17.45 -17.29,0 -31.62,-5.73 -42.98,-17.2 -11.36,-11.47 -17.04,-26.02 -17.04,-43.63 0,-17.61 5.65,-32.24 16.96,-43.87 11.31,-11.64 25.55,-17.45 42.73,-17.45zm-38.82 61.81c0,12.29 3.64,22.4 10.93,30.33 7.29,7.94 16.64,11.91 28.05,11.91 11.41,0 20.77,-4.03 28.05,-12.07 7.28,-8.05 10.93,-18.38 10.93,-30.99 0,-12.51 -3.64,-22.73 -10.93,-30.66 -7.29,-7.94 -16.69,-11.91 -28.22,-11.91 -11.64,0 -21.01,3.99 -28.14,11.99 -7.12,7.99 -10.68,18.46 -10.68,31.4zm220.53 10.82c0,15.99 -4,28.16 -11.99,36.59 -7.99,8.4 -19.54,12.61 -34.66,12.61 -31.32,0 -46.97,-16.66 -46.97,-49.99l0 -69.4 19.9 0 0 68.23c0,11.28 2.12,19.54 6.36,24.74 4.24,5.22 11.04,7.83 20.39,7.83 18.05,0 27.07,-10.19 27.07,-30.61l0 -70.19 19.9 0 0 70.19zm34.43 -70.19l39.31 0c25.66,0 38.49,9.84 38.49,29.52 0,15 -7.77,24.3 -23.32,27.89 1.09,0.43 2.01,0.81 2.77,1.14 0.76,0.32 2.01,1.11 3.75,2.36 1.74,1.25 3.4,3.02 4.98,5.3 1.57,2.28 3.5,5.87 5.79,10.76l5.55 11.25c2.94,6.31 5.49,11.23 7.67,14.76 2.17,3.53 3.89,6.17 5.14,7.91 1.25,1.74 2.96,3.97 5.14,6.69l-25.22 0 -2.12 -3.43 -4.7 -10.11 -1.96 -4.57 -1.8 -4.08 -3.91 -9.62c-3.7,-9.13 -7.42,-15.09 -11.23,-17.86 -3.81,-2.77 -9.98,-4.16 -18.54,-4.16l-5.87 0 0 53.82 -19.9 0 0 -117.59zm19.9 46.81l16.72 0c13.43,0 20.14,-4.89 20.14,-14.68 0,-5.11 -1.66,-8.86 -4.95,-11.25 -3.32,-2.39 -8.53,-3.59 -15.69,-3.59l-16.23 0 0 29.52zm158.88 -46.81l41.26 0c23.38,0 35.06,8.97 35.06,26.91 0,10.98 -5.55,19.25 -16.64,24.79 16.85,4.57 25.28,14.89 25.28,30.99 0,10.87 -3.53,19.41 -10.6,25.61 -7.07,6.2 -16.8,9.29 -29.2,9.29l-45.18 0 0 -117.59zm19.9 44.85l15.99 0c7.28,0 12.53,-1.06 15.74,-3.18 3.21,-2.12 4.81,-5.63 4.81,-10.52 0,-5.33 -1.61,-9 -4.81,-11.01 -3.21,-2.01 -9.05,-3.02 -17.53,-3.02l-14.19 0 0 27.73zm0 54.64l18.59 0c8.81,0 15.25,-1.5 19.33,-4.49 4.08,-2.99 6.11,-7.64 6.11,-13.95 0,-6.96 -2.04,-11.82 -6.11,-14.6 -4.08,-2.77 -11.17,-4.16 -21.29,-4.16l-16.64 0 0 37.19zm185.79 -29.3c0,15.99 -4,28.16 -11.99,36.59 -7.99,8.4 -19.54,12.61 -34.66,12.61 -31.32,0 -46.97,-16.66 -46.97,-49.99l0 -69.4 19.9 0 0 68.23c0,11.28 2.12,19.54 6.36,24.74 4.24,5.22 11.04,7.83 20.39,7.83 18.05,0 27.07,-10.19 27.07,-30.61l0 -70.19 19.9 0 0 70.19zm26.76 19.68c12.61,6.74 24.63,10.11 36.04,10.11 8.27,0 14.84,-1.79 19.74,-5.38 4.89,-3.56 7.34,-8.45 7.34,-14.65 0,-4.57 -1.22,-7.77 -3.67,-9.68 -2.44,-1.9 -4.95,-3.45 -7.5,-4.65 -2.56,-1.2 -7.07,-2.93 -13.54,-5.22 -6.47,-2.28 -11.33,-4.16 -14.6,-5.68 -3.26,-1.52 -7.28,-3.94 -12.07,-7.26 -4.78,-3.32 -7.17,-9.35 -7.17,-18.16 0,-9.43 3.53,-16.99 10.6,-22.65 7.07,-5.63 16.58,-8.45 28.54,-8.45 9.46,0 19.52,2.07 30.17,6.2l0 20.55c-9.79,-5.55 -19.57,-8.32 -29.36,-8.32 -5.76,0 -10.33,1.09 -13.7,3.26 -3.37,2.17 -5.05,5.19 -5.05,9.11 0,2.94 0.95,5 2.85,6.2 1.9,1.2 3.37,2.04 4.4,2.53 1.03,0.49 2.09,0.9 3.18,1.22l10.6 3.89 1.47 0.49c5.87,2.07 10.66,4 14.35,5.79 3.7,1.79 8.18,4.57 13.46,8.32 5.28,3.72 7.91,11.04 7.91,21.88 0,12.07 -4.38,21.74 -13.13,29.09 -8.75,7.31 -20.31,10.98 -34.66,10.98 -12.94,0 -25.01,-2.56 -36.21,-7.67l0 -21.86zm114.35 -89.87l19.9 0 0 117.59 -19.9 0 0 -117.59zm57.59 0l21.36 0 45.37 71.41 1.44 2.31 0.57 1.2 1.98 3.15 0.62 0.98 3.83 6.41c-0.87,-7.5 -1.31,-14.57 -1.31,-21.2l0 -64.26 19.9 0 0 117.59 -19.92 0.03 -40.07 -63.31 -3.1 -5.22 -3.78 -6.52 -3.59 -6.36 -2.94 -4.73 -1.3 -2.12 0.32 7.17 0 6.36 0 6.52 0 6.69 0 61.49 -19.41 0 0 -117.59zm132.61 0l74.21 0 0 17.78 -54.31 0 0 26.91 53.66 0 0 17.94 -53.66 0 0 36.86 54.31 0 0 18.1 -74.21 0 0 -117.59zm99.67 89.87c12.61,6.74 24.63,10.11 36.04,10.11 8.27,0 14.84,-1.79 19.74,-5.38 4.89,-3.56 7.34,-8.45 7.34,-14.65 0,-4.57 -1.22,-7.77 -3.67,-9.68 -2.44,-1.9 -4.95,-3.45 -7.5,-4.65 -2.56,-1.2 -7.07,-2.93 -13.54,-5.22 -6.47,-2.28 -11.33,-4.16 -14.6,-5.68 -3.26,-1.52 -7.28,-3.94 -12.07,-7.26 -4.78,-3.32 -7.17,-9.35 -7.17,-18.16 0,-9.43 3.53,-16.99 10.6,-22.65 7.07,-5.63 16.58,-8.45 28.54,-8.45 9.46,0 19.52,2.07 30.17,6.2l0 20.55c-9.79,-5.55 -19.57,-8.32 -29.36,-8.32 -5.76,0 -10.33,1.09 -13.7,3.26 -3.37,2.17 -5.05,5.19 -5.05,9.11 0,2.94 0.95,5 2.85,6.2 1.9,1.2 3.37,2.04 4.4,2.53 1.03,0.49 2.09,0.9 3.18,1.22l10.6 3.89 1.47 0.49c5.87,2.07 10.66,4 14.35,5.79 3.7,1.79 8.18,4.57 13.46,8.32 5.28,3.72 7.91,11.04 7.91,21.88 0,12.07 -4.38,21.74 -13.13,29.09 -8.75,7.31 -20.31,10.98 -34.66,10.98 -12.94,0 -25.01,-2.56 -36.21,-7.67l0 -21.86zm105.54 0c12.61,6.74 24.63,10.11 36.04,10.11 8.27,0 14.84,-1.79 19.74,-5.38 4.89,-3.56 7.34,-8.45 7.34,-14.65 0,-4.57 -1.22,-7.77 -3.67,-9.68 -2.44,-1.9 -4.95,-3.45 -7.5,-4.65 -2.56,-1.2 -7.07,-2.93 -13.54,-5.22 -6.47,-2.28 -11.33,-4.16 -14.6,-5.68 -3.26,-1.52 -7.28,-3.94 -12.07,-7.26 -4.78,-3.32 -7.17,-9.35 -7.17,-18.16 0,-9.43 3.53,-16.99 10.6,-22.65 7.07,-5.63 16.58,-8.45 28.54,-8.45 9.46,0 19.52,2.07 30.17,6.2l0 20.55c-9.79,-5.55 -19.57,-8.32 -29.36,-8.32 -5.76,0 -10.33,1.09 -13.7,3.26 -3.37,2.17 -5.05,5.19 -5.05,9.11 0,2.94 0.95,5 2.85,6.2 1.9,1.2 3.37,2.04 4.4,2.53 1.03,0.49 2.09,0.9 3.18,1.22l10.6 3.89 1.47 0.49c5.87,2.07 10.66,4 14.35,5.79 3.7,1.79 8.18,4.57 13.46,8.32 5.28,3.72 7.91,11.04 7.91,21.88 0,12.07 -4.38,21.74 -13.13,29.09 -8.75,7.31 -20.31,10.98 -34.66,10.98 -12.94,0 -25.01,-2.56 -36.21,-7.67l0 -21.86z"/>
 </g>
</svg>
